:SAMPLES-PER-SECOND 30
:FULLY-SPECIFIED
:DEGREES
310
root  2.3664 40.5438 -5.90471 -85.2516 84.9617 -91.4363
RightUpLeg  -9.63506 -3.13309 2.29617
RightLeg  8.55131 1.12278 2.86238
RightFoot  -3.87333 0.0530747 -1.2272
RightToes  0.000482159 0.542163 -0.142577
Spine  1.9964 -1.94678 2.8807
Spine1  8.03714 -2.87993 2.80295
HEad  9.88613 17.5605 -2.25808
LeftShoulder1  7.5262 -11.1023 -44.889
LeftArm  -9.07488 4.08066 -22.5005
LeftForeArm  18.2764 -21.6947 -3.95547
LeftHand  -0.25398 0.0180481 5.50724
RightShoulder  5.27469 9.24659 35.4009
RightArm  -10.755 -30.2836 35.6105
RightForeArm  2.19175 14.2511 5.77808
RightHand  -0.365081 -2.22247 -12.9414
LeftUpLeg  8.07962 7.84566 5.71373
LeftLeg  -1.86121 34.7766 -6.64666
LeftFoot  -9.88043 0.117857 -4.58661
LeftToes  1.06247e-005 4.65855e-005 -8.18504e-006
311
root  2.4889 40.5072 -5.84318 -87.073 85.0651 -93.0958
RightUpLeg  -9.94967 -3.31359 2.61944
RightLeg  10.0423 0.392526 2.13805
RightFoot  -4.99323 0.0437615 -1.40642
RightToes  0.000482159 0.542163 -0.142577
Spine  2.29528 -2.20417 2.28122
Spine1  8.09456 -3.30819 3.40047
HEad  9.55143 17.9742 -2.29391
LeftShoulder1  7.66208 -11.344 -44.9601
LeftArm  -7.32727 0.993659 -23.4097
LeftForeArm  18.3548 -18.983 -4.30272
LeftHand  -0.25398 0.0180481 5.50724
RightShoulder  5.28319 9.26818 35.3976
RightArm  -10.7164 -28.4952 36.1115
RightForeArm  2.86258 14.1746 5.77437
RightHand  -0.478744 -1.36363 -13.6054
LeftUpLeg  8.37971 8.03771 5.91949
LeftLeg  -1.51629 34.4083 -6.55103
LeftFoot  -10.0083 0.117377 -4.94574
LeftToes  1.06247e-005 4.65855e-005 -8.18504e-006
312
root  2.70221 40.4655 -5.75456 -89.9633 85.1767 -95.6116
RightUpLeg  -9.83529 -3.81135 2.89513
RightLeg  11.4995 -0.398224 1.56567
RightFoot  -6.09823 0.0442636 -1.86679
RightToes  0.000482159 0.542163 -0.142577
Spine  2.5417 -2.43793 2.17481
Spine1  8.24855 -3.58391 3.5403
HEad  9.7398 18.1236 -2.39817
LeftShoulder1  7.68963 -11.4681 -44.7392
LeftArm  -6.19806 -1.16262 -24.5522
LeftForeArm  20.6242 -17.6269 -4.6491
LeftHand  -0.25398 0.0180481 5.50724
RightShoulder  5.28116 9.29866 35.2855
RightArm  -11.4884 -26.7076 36.8688
RightForeArm  4.17622 13.7464 5.69131
RightHand  -0.55456 -0.815967 -13.9754
LeftUpLeg  8.85801 8.37996 6.36631
LeftLeg  -0.586307 33.4422 -6.26582
LeftFoot  -10.3564 0.115496 -6.27573
LeftToes  1.06247e-005 4.65855e-005 -8.18504e-006
313
root  3.02674 40.4057 -5.63322 -93.3582 85.3419 -98.5632
RightUpLeg  -9.27085 -4.29799 3.01075
RightLeg  12.6242 -0.740675 1.20619
RightFoot  -7.44688 0.0207456 -2.08492
RightToes  0.000482159 0.542163 -0.142577
Spine  2.49507 -2.53351 2.48415
Spine1  8.59021 -3.61689 3.30184
HEad  10.2427 17.9187 -2.56717
LeftShoulder1  7.70053 -11.5722 -44.4829
LeftArm  -4.84313 -1.98324 -25.8103
LeftForeArm  23.2868 -18.5559 -4.37906
LeftHand  -0.25398 0.0180481 5.50724
RightShoulder  5.32151 9.40101 35.2709
RightArm  -11.6985 -25.5008 37.3472
RightForeArm  4.16277 14.1109 5.59959
RightHand  -0.571569 -0.707361 -14.0843
LeftUpLeg  9.26143 8.78063 6.91797
LeftLeg  1.13306 32.4149 -5.64622
LeftFoot  -10.731 0.106484 -7.85196
LeftToes  1.06247e-005 4.65855e-005 -8.18504e-006
314
root  3.46833 40.3342 -5.47679 -94.2411 85.6023 -98.9872
RightUpLeg  -8.40701 -4.30942 3.04263
RightLeg  13.4651 -0.670837 0.922394
RightFoot  -8.79149 -0.00883823 -2.28302
RightToes  0.000482159 0.542163 -0.142577
Spine  2.12274 -2.3576 3.19532
Spine1  9.07266 -3.26672 2.6665
HEad  10.9192 17.4381 -2.85906
LeftShoulder1  7.75995 -11.6875 -44.4863
LeftArm  -3.29828 -1.51239 -26.7865
LeftForeArm  24.9358 -21.4217 -3.811
LeftHand  -0.25398 0.0180481 5.50724
RightShoulder  5.41344 9.53096 35.5593
RightArm  -10.2897 -24.7878 37.0976
RightForeArm  2.18219 15.4033 5.62021
RightHand  -0.615889 -0.523494 -14.6176
LeftUpLeg  9.53765 9.51029 7.53407
LeftLeg  3.67485 31.6039 -4.63303
LeftFoot  -10.921 0.0972981 -8.62276
LeftToes  1.06247e-005 4.65855e-005 -8.18504e-006
315
root  3.99804 40.2466 -5.27964 -91.1745 85.8462 -95.4038
RightUpLeg  -7.4012 -4.06281 3.18058
RightLeg  14.3197 -0.451161 0.698088
RightFoot  -9.92066 -0.0322789 -2.82735
RightToes  0.000482159 0.542163 -0.142577
Spine  1.6727 -1.9772 4.18084
Spine1  9.57178 -2.64841 1.9233
HEad  11.7201 17.0022 -3.38421
LeftShoulder1  7.82958 -11.7229 -44.7951
LeftArm  -3.12503 0.00536936 -27.2493
LeftForeArm  25.9688 -24.9709 -3.92314
LeftHand  -0.25398 0.0180481 5.50724
RightShoulder  5.50959 9.57561 36.1401
RightArm  -7.58546 -23.801 36.1916
RightForeArm  0.149009 16.6702 5.69469
RightHand  -0.730837 0.0207097 -15.6644
LeftUpLeg  9.65903 13.6802 8.89988
LeftLeg  7.61117 27.1277 -2.58271
LeftFoot  -11.2132 0.0752615 -10.3743
LeftToes  1.06247e-005 4.65855e-005 -8.18504e-006
316
root  4.55908 40.1188 -5.0379 -88.6909 85.9816 -92.4352
RightUpLeg  -6.4877 -4.46395 3.33488
RightLeg  15.4399 0.107214 0.821182
RightFoot  -11.1088 -0.0680063 -3.44298
RightToes  0.000482159 0.542163 -0.142577
Spine  1.30316 -1.66038 5.09259
Spine1  10.061 -2.11071 1.57424
HEad  12.6079 16.8444 -4.01931
LeftShoulder1  7.82964 -11.6257 -45.0944
LeftArm  -4.1042 2.34608 -27.4952
LeftForeArm  26.228 -28.2966 -4.68647
LeftHand  -0.25398 0.0180481 5.50724
RightShoulder  5.57335 9.53105 36.7563
RightArm  -5.13603 -21.9599 35.2382
RightForeArm  0.110977 16.9094 5.82359
RightHand  -0.858672 0.617092 -16.6333
LeftUpLeg  8.77935 23.6561 11.1914
LeftLeg  13.84 15.8877 1.29243
LeftFoot  -11.3787 0.0697595 -15.0419
LeftToes  1.06247e-005 4.65855e-005 -8.18504e-006
317
root  5.11107 39.9575 -4.77006 -92.0952 86.1653 -95.5194
RightUpLeg  -5.7731 -5.94876 3.15508
RightLeg  16.7338 1.29044 1.47997
RightFoot  -12.553 -0.122757 -3.63575
RightToes  0.000482159 0.542163 -0.142577
Spine  1.06994 -1.52105 5.7873
Spine1  10.4433 -1.74261 1.46931
HEad  13.5463 16.7519 -4.44304
LeftShoulder1  7.76966 -11.5047 -45.1096
LeftArm  -5.11168 5.17271 -27.8201
LeftForeArm  25.8893 -31.1176 -5.35861
LeftHand  -0.25398 0.0180481 5.50724
RightShoulder  5.6061 9.49783 37.1065
RightArm  -4.19015 -19.5039 34.8572
RightForeArm  1.65586 16.0318 6.07642
RightHand  -0.938774 0.970863 -17.1897
LeftUpLeg  5.0885 27.4415 11.7655
LeftLeg  22.9491 10.9015 5.89417
LeftFoot  -9.4823 0.36741 -18.7181
LeftToes  1.06247e-005 4.65855e-005 -8.18504e-006
318
root  5.65284 39.7822 -4.52051 -99.2572 86.3728 -102.385
RightUpLeg  -5.05323 -7.75535 2.71618
RightLeg  18.068 2.66253 2.32817
RightFoot  -14.0808 -0.180317 -3.55943
RightToes  0.000482159 0.542163 -0.142577
Spine  1.2209 -1.36416 6.79788
Spine1  10.5498 -1.206 0.866513
HEad  14.49 16.2705 -4.51422
LeftShoulder1  7.75681 -11.5071 -45.0247
LeftArm  -6.00822 7.89591 -28.005
LeftForeArm  26.3209 -33.298 -5.86757
LeftHand  -0.25398 0.0180481 5.50724
RightShoulder  5.62253 9.51694 37.1675
RightArm  -4.41333 -17.0185 34.9986
RightForeArm  2.749 14.859 6.38333
RightHand  -0.975473 1.12568 -17.4415
LeftUpLeg  -1.21161 22.461 10.7039
LeftLeg  35.0254 14.4992 11.0283
LeftFoot  -3.92412 0.956647 -15.1818
LeftToes  1.06247e-005 4.65855e-005 -8.18504e-006
319
root  6.1953 39.5706 -4.32433 -103.648 86.3668 -106.242
RightUpLeg  -4.21125 -8.90451 2.56343
RightLeg  19.6813 3.45325 2.78433
RightFoot  -15.6649 -0.24833 -3.7568
RightToes  0.000482159 0.542163 -0.142577
Spine  1.92506 -1.041 8.65485
Spine1  10.5338 -0.261146 -0.39037
HEad  15.38 15.2726 -4.36472
LeftShoulder1  7.85196 -11.625 -45.2299
LeftArm  -6.45686 9.9774 -27.7238
LeftForeArm  27.4067 -34.5038 -6.11069
LeftHand  -0.25398 0.0180481 5.50724
RightShoulder  5.64236 9.53326 37.2624
RightArm  -4.5419 -14.5553 35.0066
RightForeArm  2.6824 14.079 6.65304
RightHand  -0.983445 1.16301 -17.4848
LeftUpLeg  -7.79466 19.2708 9.89676
LeftLeg  46.2518 13.3724 14.7725
LeftFoot  2.68558 0.733507 -6.01068
LeftToes  1.06247e-005 4.65855e-005 -8.18504e-006
320
root  6.78265 39.3845 -4.16306 -103.872 86.5478 -105.75
RightUpLeg  -3.05343 -9.22493 2.43021
RightLeg  21.0762 3.60735 2.76236
RightFoot  -17.1412 -0.328583 -4.2006
RightToes  0.000482159 0.542163 -0.142577
Spine  2.72187 -0.587681 10.319
Spine1  10.7438 0.838134 -1.78002
HEad  16.2207 14.1149 -4.14742
LeftShoulder1  7.97916 -11.7151 -45.7088
LeftArm  -6.33294 11.3632 -27.1225
LeftForeArm  27.997 -34.1081 -5.97665
LeftHand  -0.25398 0.0180481 5.50724
RightShoulder  5.67701 9.50247 37.6191
RightArm  -4.20787 -11.6944 34.4998
RightForeArm  2.95486 13.4755 6.90047
RightHand  -0.970968 1.1192 -17.3784
LeftUpLeg  -13.3336 17.2887 8.853
LeftLeg  53.7853 8.64628 12.8408
LeftFoot  5.49274 -0.00146284 -0.0736158
LeftToes  1.06247e-005 4.65855e-005 -8.18504e-006
